# xmcd CD database file
#
# Track frame offsets:
#	187
#	21130
#	34565
#	52907
#	83367
#	103535
#	125755
#	150920
#	174500
#	201070
#	209360
#	226555
#	242197
#
# Disc length: 3415 seconds
#
# Revision: 2
# Processed by: cddbd v1.5.2PL0 Copyright (c) Steve Scherf et al.
# Submitted via: CDex 1.75
#
DISCID=910d550d
DTITLE=Various Artist - Dance Super Hits '80s 2
DYEAR=1995
DGENRE=Dance
TTITLE0=Toy Boy
TTITLE1=Get Out Of My Life
TTITLE2=Children Of The Sky
TTITLE3=The Beach
TTITLE4=A Night To Remember
TTITLE5=Last Night A D.J. Saved My Life
TTITLE6=Operator
TTITLE7=S.O.S. (Love To The Rescue)
TTITLE8=Do Ya Wanna Funk
TTITLE9=Crank It Up
TTITLE10=Come Come Come
TTITLE11=Duri Duri
TTITLE12=Upside Down
EXTD=YEAR: 1995
EXTT0=
EXTT1=
EXTT2=
EXTT3=
EXTT4=
EXTT5=
EXTT6=
EXTT7=
EXTT8=
EXTT9=
EXTT10=
EXTT11=
EXTT12=
PLAYORDER=
